# xmcd CD database file
#
# Track frame offsets:
#	150
#	17897
#	37705
#	57160
#	77600
#	109255
#	135735
#	150760
#	169295
#	187170
#
# Disc length: 2704 seconds
#
# Revision: 12
# Processed by: cddbd v1.5.1PL2 Copyright (c) Steve Scherf et al.
# Submitted via: CDex 1.70beta2
#
DISCID=760a8e0a
DTITLE=יהודית רביץ - ומאוד לא פשוט לחכות
DYEAR=1993
DGENRE=New Age
TTITLE0=תמונה
TTITLE1=למחרת
TTITLE2=באהבתנו
TTITLE3=קח
TTITLE4=עשה שיהיה לי קל
TTITLE5=נעמיד פני יתומים
TTITLE6=נוסע סמוי
TTITLE7=הגננים היום עצובים
TTITLE8=אני משם
TTITLE9=בגן מוקסם
EXTD=YEAR: 1993
EXTT0=
EXTT1=
EXTT2=
EXTT3=
EXTT4=
EXTT5=
EXTT6=
EXTT7=
EXTT8=
EXTT9=
PLAYORDER=
